<svg xmlns="http://www.w3.org/2000/svg" version="1.1" xmlns:xlink="http://www.w3.org/1999/xlink" width="1024" height="1024"><svg xmlns="http://www.w3.org/2000/svg" viewBox="0 0 1024 1024"><defs><style>.cls-1{fill:none;stroke:#edf3f6;stroke-linecap:round;stroke-miterlimit:10;stroke-width:83px;}.cls-2{fill:#00142d;}</style></defs><g id="SvgjsG1031"><circle id="SvgjsCircle1030" class="cls-2" cx="511.5" cy="511.5" r="512"></circle></g><g id="SvgjsG1029"><path id="SvgjsPath1028" class="cls-1" d="M599.7499,414.9809c-36.9778-24.2099-82.5291-28.4258-117.6778-8.9358-51.8076,28.7274-61.4458,98.1058-44.0107,144.618,19.6115,52.3182,71.8523,71.3708,89.1792,77.6901,92.9346,33.894,177.5827-28.0116,182.0604-31.4066,68.913-52.2493,78.4582-131.0215,80.1146-149.2169,8.9137-97.9147-53.7094-165.2394-68.1473-180.7612-81.4437-87.5583-194.7421-83.9548-216.6115-83.2592-26.0777.8295-107.2379,6.8658-180.7612,68.1473-86.1244,71.7844-101.3736,169.033-105.1505,195.8472-21.3443,151.5335,75.8527,264.2851,102.6985,295.427,66.6492,77.3151,144.9069,112.221,186.9126,127.3859"></path></g></svg><style>@media (prefers-color-scheme: light) { :root { filter: none; } }
@media (prefers-color-scheme: dark) { :root { filter: none; } }
</style></svg>